<?xml version="1.0" encoding="UTF-8" standalone="no"?>
<!-- Created with Inkscape (http://www.inkscape.org/) -->

<svg
   width="375"
   height="300"
   viewBox="0 0 375 300"
   version="1.1"
   id="svg1"
   xmlns="http://www.w3.org/2000/svg"
   xmlns:svg="http://www.w3.org/2000/svg">
  <defs
     id="defs1" />
  <g
     id="layer1"
     transform="matrix(1.0013883,0,0,1,-19.455761,-83.934972)"
     style="fill:#ffffff">
    <g
       id="g26"
       style="font-variation-settings:normal;vector-effect:none;fill:#ffffff;fill-opacity:1;stroke:none;stroke-width:1.37239;stroke-linecap:butt;stroke-linejoin:miter;stroke-miterlimit:4;stroke-dasharray:none;stroke-dashoffset:0;stroke-opacity:1;-inkscape-stroke:none;stop-color:#000000"
       transform="matrix(10.028295,0,0,10.050305,-215.82639,-478.32543)">
      <path
         id="path23"
         style="font-variation-settings:normal;baseline-shift:baseline;display:inline;overflow:visible;opacity:1;vector-effect:none;fill:#ffffff;fill-opacity:1;stroke:none;stroke-width:1.37239;stroke-linecap:butt;stroke-linejoin:miter;stroke-miterlimit:4;stroke-dasharray:none;stroke-dashoffset:0;stroke-opacity:1;-inkscape-stroke:none;enable-background:accumulate;stop-color:#000000;stop-opacity:1"
         d="m 48.934071,55.945626 c -0.565089,-0.01874 -1.120185,0.222336 -1.492416,0.675411 L 23.45914,85.79445 30.407553,83.195126 47.019459,62.96897 v 7.375261 l 3.7052,-2.072225 v -10.47688 c -8.01e-4,-0.781799 -0.492212,-1.479257 -1.228349,-1.742529 -0.184052,-0.06579 -0.373876,-0.100723 -0.562239,-0.106971 z m 1.790588,16.764868 c -0.992167,0.572949 -2.010922,1.13548 -3.043225,1.682068 l -0.661975,0.350883 v 8.451681 h 3.7052 z" />
      <path
         style="font-variation-settings:normal;display:inline;vector-effect:none;fill:#ffffff;fill-opacity:1;fill-rule:nonzero;stroke:none;stroke-width:1.37239;stroke-linecap:butt;stroke-linejoin:miter;stroke-miterlimit:4;stroke-dasharray:none;stroke-dashoffset:0;stroke-opacity:1;-inkscape-stroke:none;stop-color:#000000;stop-opacity:1"
         d="m 31.950056,77.606851 c -0.0085,-0.196635 -0.460355,-0.722383 -0.05259,-1.179767 0.724959,-0.81317 3.772655,-1.944635 8.005246,-3.724563 2.891826,-1.216098 5.909475,-2.560627 8.667206,-4.043954 0.698647,-0.375788 1.359514,-0.749374 1.979348,-1.120019 1.664392,-0.995264 3.399089,-2.120065 4.850226,-3.297188 0.859732,-0.697393 1.594371,-1.392607 2.154924,-2.071824 0.535448,-0.648798 0.882549,-1.247368 1.051881,-1.792026 0.09165,-0.307528 0.147063,-0.57368 0.175805,-0.803807 0.02855,-0.228567 0.03092,-0.422589 0.01587,-0.587324 -0.01504,-0.164675 -0.04828,-0.309356 -0.09803,-0.438421 -0.05067,-0.131451 -0.121594,-0.254847 -0.217663,-0.371785 -0.202112,-0.246017 -0.506971,-0.451965 -0.90291,-0.612149 -0.420736,-0.170216 -0.904522,-0.272762 -1.388989,-0.330055 -0.83261,-0.09846 -1.674049,-0.06428 -2.237043,-0.01477 -0.264817,0.02329 -0.513582,0.05204 -0.736959,0.08137 -1.122032,0.147312 -1.436831,0.227344 -1.445882,0.198487 -0.0042,-0.01345 0.184245,-0.167266 1.379821,-0.513361 0.220381,-0.0638 0.466279,-0.130467 0.731217,-0.195804 0.554964,-0.136861 1.415444,-0.33255 2.320227,-0.406639 0.523368,-0.04286 1.106523,-0.04917 1.674421,0.0389 0.527179,0.08175 1.086838,0.251627 1.581374,0.59242 0.24217,0.166883 0.468063,0.374418 0.663656,0.629782 0.193771,0.252986 0.351545,0.544818 0.466127,0.875162 0.113826,0.328167 0.182372,0.686581 0.205402,1.072647 0.02305,0.386351 4.65e-4,0.798993 -0.06675,1.236925 -0.154012,0.971651 -0.594866,1.915956 -1.192844,2.801279 -0.627843,0.929539 -1.448447,1.823346 -2.358221,2.65928 -1.535778,1.41113 -3.372887,2.700385 -5.096721,3.76439 -0.648015,0.399976 -1.328479,0.807599 -2.045171,1.222748 -2.811938,1.628836 -5.865163,3.187369 -8.797631,4.497786 -4.280655,1.912874 -7.528028,2.95724 -8.58874,2.787125 -0.6075,-0.09743 -0.584007,-0.79903 -0.696616,-0.954844 z"
         id="path25" />
    </g>
  </g>
</svg>
