<?xml version="1.0" encoding="UTF-8" standalone="no"?>
<!-- Created with Inkscape (http://www.inkscape.org/) -->

<svg
   width="375"
   height="300"
   viewBox="0 0 375 300"
   version="1.1"
   id="svg1"
   xmlns:xlink="http://www.w3.org/1999/xlink"
   xmlns="http://www.w3.org/2000/svg"
   xmlns:svg="http://www.w3.org/2000/svg">
  <defs
     id="defs1">
    <linearGradient
       id="linearGradient9">
      <stop
         offset="0"
         style="stop-color:#ffbe8f;stop-opacity:1;"
         id="stop5" />
      <stop
         offset="0.29142818"
         style="stop-color:#b64d5f;stop-opacity:1;"
         id="stop6" />
      <stop
         offset="0.54470932"
         style="stop-color:#6d4793;stop-opacity:1;"
         id="stop7" />
      <stop
         offset="0.7482971"
         style="stop-color:#4f5fb0;stop-opacity:1;"
         id="stop8" />
      <stop
         offset="1"
         style="stop-color:#4075bf;stop-opacity:1;"
         id="stop9" />
    </linearGradient>
    <radialGradient
       xlink:href="#linearGradient9"
       id="radialGradient23"
       gradientUnits="userSpaceOnUse"
       gradientTransform="matrix(20.084458,6.8511418e-7,-0.12843747,5.8827163,-471.38057,-462.89265)"
       cx="24.299227"
       cy="129.68373"
       fx="24.299227"
       fy="129.68373"
       r="51.055538" />
  </defs>
  <path
     id="path18"
     style="font-weight:596;font-size:31.4035px;font-family:'Red Hat Display';-inkscape-font-specification:'Red Hat Display weight=596';font-variation-settings:normal;letter-spacing:-1.2267px;display:inline;vector-effect:none;fill:url(#radialGradient23);fill-opacity:1;stroke:none;stroke-width:13.797;stroke-linecap:butt;stroke-linejoin:miter;stroke-miterlimit:4;stroke-dasharray:none;stroke-dashoffset:0;stroke-opacity:1;-inkscape-stroke:none;stop-color:#000000"
     d="M 255.82503,-0.40642938 C 250.15027,-0.59503393 244.5761,1.8308941 240.83809,6.3907636 L 0,300 69.777811,273.84 109.82817,224.96879 c 16.00289,-4.03571 40.03999,-12.98326 68.68515,-25.81184 29.44851,-13.1884 60.10975,-28.8742 88.34784,-45.26724 7.1972,-4.17816 14.03011,-8.28066 20.53762,-12.30614 17.31114,-10.70844 35.76038,-23.68261 51.183,-37.88461 9.13617,-8.413076 17.37634,-17.408576 23.68129,-26.763698 6.00504,-8.910132 10.43225,-18.415108 11.97887,-28.194068 0.67493,-4.407466 0.90167,-8.559917 0.6702,-12.448272 -0.23127,-3.885468 -0.91968,-7.492162 -2.06276,-10.794916 -1.15067,-3.324683 -2.73509,-6.26168 -4.68097,-8.807799 -1.96421,-2.570053 -4.23228,-4.658671 -6.6642,-6.338217 C 356.53796,6.9221562 350.91814,5.2120406 345.6241,4.3892872 339.92114,3.5029265 334.06489,3.5667659 328.8091,3.99812 c -9.08605,0.7456607 -17.72748,2.7142087 -23.30055,4.0916085 -2.66057,0.6575984 -5.13041,1.3293901 -7.34353,1.9714895 -11.81865,3.42876 -13.8365,4.982681 -13.85646,5.159502 -2e-5,6.6e-4 -6e-5,0.0029 0,0.0044 v 0.0014 0.0014 c 0.0914,0.290449 3.25242,-0.514995 14.52014,-1.997563 2.24321,-0.295181 4.74156,-0.584444 7.4009,-0.818848 5.65371,-0.498281 14.10349,-0.842285 22.46476,0.148652 4.86513,0.576578 9.72393,1.609219 13.94904,3.322324 3.97612,1.612134 7.03762,3.684903 9.06729,6.160885 0.96474,1.176899 1.67648,2.417914 2.18531,3.740873 0.4996,1.298951 0.83339,2.755034 0.98444,4.412374 0.15112,1.657924 0.12759,3.611484 -0.15907,5.911846 -0.2886,2.316049 -0.84506,4.994296 -1.76547,8.08935 -1.70049,5.481577 -5.18575,11.505762 -10.56285,18.035435 -5.62918,6.835825 -13.00709,13.833106 -21.6407,20.851861 C 306.69087,94.516299 289.9785,105.45641 273.807,115.20898 V 18.207083 C 273.8,10.338836 268.86332,3.3206665 261.47088,0.67102583 259.62258,0.00889619 257.7166,-0.34310838 255.82503,-0.4059901 Z M 236.59781,70.277591 v 65.382379 c -23.26236,11.75694 -47.785,22.59797 -71.46764,32.57909 -4.61428,1.94467 -9.08873,3.81292 -13.40794,5.60804 z M 273.807,168.31988 c -9.96358,5.76632 -20.19401,11.42744 -30.56063,16.92845 l -6.64856,3.53093 V 273.84 H 273.807 Z" />
</svg>
